<svg width="171" height="170" viewBox="0 0 171 170" fill="none" xmlns="http://www.w3.org/2000/svg">
<rect x="0.5" width="170" height="170" rx="33.2031" fill="black"/>
<path d="M150.91 84.917C150.91 121.088 121.588 150.41 85.417 150.41C49.2461 150.41 19.9238 121.088 19.9238 84.917C19.9238 48.7461 49.2461 19.4238 85.417 19.4238C121.588 19.4238 150.91 48.7461 150.91 84.917ZM31.7157 84.917C31.7157 114.575 55.7586 138.618 85.417 138.618C115.075 138.618 139.118 114.575 139.118 84.917C139.118 55.2586 115.075 31.2157 85.417 31.2157C55.7586 31.2157 31.7157 55.2586 31.7157 84.917Z" fill="white"/>
<circle cx="85.59" cy="84.9169" r="7.14471" fill="white"/>
<path d="M72.0571 62.8428C66.8524 66.1351 62.9679 71.2719 61.1195 77.3065C59.2711 83.3412 59.5834 89.8669 61.9988 95.6811C64.4142 101.495 68.7699 106.206 74.2632 108.945C79.7565 111.684 86.0172 112.267 91.8914 110.587C97.7656 108.906 102.857 105.075 106.228 99.7993C109.599 94.5239 111.022 88.1597 110.235 81.8797C109.448 75.5997 106.504 69.827 101.945 65.6257C97.3857 61.4243 91.5195 59.0774 85.4271 59.0174L85.3645 65.891C89.8619 65.9353 94.1923 67.6678 97.5577 70.7692C100.923 73.8706 103.097 78.132 103.678 82.7679C104.259 87.4038 103.208 92.1018 100.72 95.996C98.2315 99.8903 94.4727 102.718 90.1364 103.959C85.8001 105.2 81.1785 104.77 77.1234 102.747C73.0682 100.725 69.8529 97.248 68.0698 92.956C66.2868 88.664 66.0563 83.8467 67.4208 79.392C68.7853 74.9372 71.6528 71.1453 75.4949 68.7149L72.0571 62.8428Z" fill="white"/>
<path d="M83.296 130.758C89.7706 131.079 96.2344 129.925 102.235 127.375C108.235 124.826 113.626 120.944 118.03 116C122.435 111.057 125.746 105.172 127.732 98.7583C129.718 92.3445 130.33 85.5569 129.526 78.8711C128.723 72.1853 126.522 65.7631 123.079 60.0545C119.635 54.346 115.033 49.4893 109.593 45.8247C104.154 42.16 98.0093 39.7762 91.5902 38.8403C85.1711 37.9043 78.6327 38.4389 72.4333 40.4065L75.832 51.9769C80.4084 50.5244 85.235 50.1298 89.9735 50.8207C94.7121 51.5117 99.248 53.2714 103.263 55.9766C107.279 58.6818 110.676 62.267 113.218 66.481C115.76 70.695 117.384 75.4359 117.978 80.3713C118.571 85.3067 118.119 90.3173 116.653 95.052C115.187 99.7866 112.743 104.131 109.491 107.78C106.24 111.429 102.26 114.295 97.8311 116.177C93.4019 118.059 88.6303 118.911 83.8508 118.674L83.296 130.758Z" fill="white"/>
</svg>
